<mxfile host="65bd71144e">
    <diagram id="VRQpD-lPPY5bt8z7hAsF" name="Page-1">
        <mxGraphModel dx="2183" dy="753" grid="1" gridSize="10" guides="1" tooltips="1" connect="1" arrows="1" fold="1" page="1" pageScale="1" pageWidth="850" pageHeight="1100" math="0" shadow="0">
            <root>
                <mxCell id="0"/>
                <mxCell id="1" parent="0"/>
                <mxCell id="108" value="" style="rounded=0;whiteSpace=wrap;html=1;" vertex="1" parent="1">
                    <mxGeometry x="310" y="10" width="820" height="570" as="geometry"/>
                </mxCell>
                <mxCell id="73" value="" style="rounded=1;whiteSpace=wrap;html=1;" vertex="1" parent="1">
                    <mxGeometry x="340" y="110" width="410" height="420" as="geometry"/>
                </mxCell>
                <mxCell id="31" value="" style="edgeStyle=orthogonalEdgeStyle;html=1;entryX=0;entryY=0.5;entryDx=0;entryDy=0;" parent="1" source="3" target="83" edge="1">
                    <mxGeometry relative="1" as="geometry">
                        <mxPoint x="300" y="260" as="targetPoint"/>
                    </mxGeometry>
                </mxCell>
                <mxCell id="98" value="For each&amp;nbsp;&lt;br&gt;user query" style="edgeLabel;html=1;align=center;verticalAlign=middle;resizable=0;points=[];" vertex="1" connectable="0" parent="31">
                    <mxGeometry x="-0.2488" y="2" relative="1" as="geometry">
                        <mxPoint as="offset"/>
                    </mxGeometry>
                </mxCell>
                <mxCell id="3" value="" style="shape=actor;whiteSpace=wrap;html=1;" parent="1" vertex="1">
                    <mxGeometry x="170" y="210" width="40" height="60" as="geometry"/>
                </mxCell>
                <mxCell id="72" value="" style="rounded=1;whiteSpace=wrap;html=1;" vertex="1" parent="1">
                    <mxGeometry x="810" y="110" width="270" height="210" as="geometry"/>
                </mxCell>
                <mxCell id="79" style="edgeStyle=orthogonalEdgeStyle;html=1;exitX=0.5;exitY=1;exitDx=0;exitDy=0;entryX=0;entryY=0.5;entryDx=0;entryDy=0;" edge="1" parent="1" source="74" target="78">
                    <mxGeometry relative="1" as="geometry"/>
                </mxCell>
                <mxCell id="74" value="src/compiler.py" style="rounded=1;whiteSpace=wrap;html=1;" vertex="1" parent="1">
                    <mxGeometry x="840" y="140" width="110" height="50" as="geometry"/>
                </mxCell>
                <mxCell id="81" value="" style="edgeStyle=orthogonalEdgeStyle;html=1;" edge="1" parent="1" source="78" target="80">
                    <mxGeometry relative="1" as="geometry"/>
                </mxCell>
                <mxCell id="97" value="Output of the&amp;nbsp;&lt;br&gt;code executed" style="edgeLabel;html=1;align=center;verticalAlign=middle;resizable=0;points=[];" vertex="1" connectable="0" parent="81">
                    <mxGeometry x="0.3334" relative="1" as="geometry">
                        <mxPoint y="7" as="offset"/>
                    </mxGeometry>
                </mxCell>
                <mxCell id="78" value="Churns up a&amp;nbsp;&lt;br&gt;folder under which&lt;br&gt;execution happens" style="rounded=1;whiteSpace=wrap;html=1;" vertex="1" parent="1">
                    <mxGeometry x="910" y="230" width="120" height="60" as="geometry"/>
                </mxCell>
                <mxCell id="91" style="edgeStyle=orthogonalEdgeStyle;html=1;exitX=0;exitY=0.5;exitDx=0;exitDy=0;entryX=0.5;entryY=1;entryDx=0;entryDy=0;dashed=1;" edge="1" parent="1" source="80" target="86">
                    <mxGeometry relative="1" as="geometry">
                        <Array as="points">
                            <mxPoint x="800" y="410"/>
                            <mxPoint x="800" y="510"/>
                            <mxPoint x="630" y="510"/>
                        </Array>
                    </mxGeometry>
                </mxCell>
                <mxCell id="80" value="&lt;b&gt;{&lt;br&gt;&quot;stdout&quot;,&lt;br&gt;&quot;stderr&quot;,&lt;br&gt;&quot;images&quot;,&lt;br&gt;&quot;status&quot;&lt;br&gt;}&lt;/b&gt;" style="rounded=1;whiteSpace=wrap;html=1;" vertex="1" parent="1">
                    <mxGeometry x="910" y="370" width="180" height="80" as="geometry"/>
                </mxCell>
                <mxCell id="89" style="edgeStyle=orthogonalEdgeStyle;html=1;exitX=1;exitY=0.5;exitDx=0;exitDy=0;entryX=0;entryY=0.5;entryDx=0;entryDy=0;" edge="1" parent="1" source="83" target="84">
                    <mxGeometry relative="1" as="geometry"/>
                </mxCell>
                <mxCell id="92" value="Router&lt;br&gt;to classify&lt;br&gt;general&lt;br&gt;vs Code&lt;br&gt;interpreter&lt;br&gt;queries" style="edgeLabel;html=1;align=center;verticalAlign=middle;resizable=0;points=[];" vertex="1" connectable="0" parent="89">
                    <mxGeometry x="-0.3836" y="2" relative="1" as="geometry">
                        <mxPoint as="offset"/>
                    </mxGeometry>
                </mxCell>
                <mxCell id="83" value="src/app.py" style="rounded=1;whiteSpace=wrap;html=1;" vertex="1" parent="1">
                    <mxGeometry x="360" y="215" width="110" height="50" as="geometry"/>
                </mxCell>
                <mxCell id="87" value="" style="edgeStyle=orthogonalEdgeStyle;html=1;" edge="1" parent="1" source="84" target="86">
                    <mxGeometry relative="1" as="geometry"/>
                </mxCell>
                <mxCell id="94" value="for code&amp;nbsp;&lt;br&gt;interpreter&lt;br&gt;queries" style="edgeLabel;html=1;align=center;verticalAlign=middle;resizable=0;points=[];" vertex="1" connectable="0" parent="87">
                    <mxGeometry x="0.6434" relative="1" as="geometry">
                        <mxPoint y="-16" as="offset"/>
                    </mxGeometry>
                </mxCell>
                <mxCell id="88" style="edgeStyle=orthogonalEdgeStyle;html=1;exitX=0.5;exitY=1;exitDx=0;exitDy=0;" edge="1" parent="1" source="84" target="85">
                    <mxGeometry relative="1" as="geometry"/>
                </mxCell>
                <mxCell id="93" value="for general&lt;br&gt;conversation" style="edgeLabel;html=1;align=center;verticalAlign=middle;resizable=0;points=[];" vertex="1" connectable="0" parent="88">
                    <mxGeometry x="0.0733" y="2" relative="1" as="geometry">
                        <mxPoint as="offset"/>
                    </mxGeometry>
                </mxCell>
                <mxCell id="106" style="edgeStyle=orthogonalEdgeStyle;html=1;exitX=1;exitY=0.5;exitDx=0;exitDy=0;entryX=0.625;entryY=0.2;entryDx=0;entryDy=0;entryPerimeter=0;dashed=1;startArrow=classic;startFill=1;" edge="1" parent="1" source="84" target="99">
                    <mxGeometry relative="1" as="geometry"/>
                </mxCell>
                <mxCell id="107" value="Using&amp;nbsp;&lt;br&gt;router_prompt.txt&lt;br&gt;and the llm to classify&lt;br&gt;the user queries" style="edgeLabel;html=1;align=center;verticalAlign=middle;resizable=0;points=[];" vertex="1" connectable="0" parent="106">
                    <mxGeometry x="0.5635" y="-1" relative="1" as="geometry">
                        <mxPoint as="offset"/>
                    </mxGeometry>
                </mxCell>
                <mxCell id="84" value="src/services/router.py" style="rounded=1;whiteSpace=wrap;html=1;" vertex="1" parent="1">
                    <mxGeometry x="560" y="190" width="130" height="55" as="geometry"/>
                </mxCell>
                <mxCell id="100" style="edgeStyle=orthogonalEdgeStyle;html=1;exitX=0.5;exitY=1;exitDx=0;exitDy=0;entryX=0.07;entryY=0.4;entryDx=0;entryDy=0;entryPerimeter=0;dashed=1;startArrow=classic;startFill=1;" edge="1" parent="1" source="85" target="99">
                    <mxGeometry relative="1" as="geometry">
                        <Array as="points">
                            <mxPoint x="440" y="806"/>
                        </Array>
                    </mxGeometry>
                </mxCell>
                <mxCell id="102" value="Using&amp;nbsp;&lt;br&gt;general_conversation.txt&lt;br&gt;and the llm to chat" style="edgeLabel;html=1;align=center;verticalAlign=middle;resizable=0;points=[];" vertex="1" connectable="0" parent="100">
                    <mxGeometry x="-0.312" y="-1" relative="1" as="geometry">
                        <mxPoint as="offset"/>
                    </mxGeometry>
                </mxCell>
                <mxCell id="85" value="src/services/general_&lt;br&gt;conversation.py" style="rounded=1;whiteSpace=wrap;html=1;" vertex="1" parent="1">
                    <mxGeometry x="380" y="360" width="120" height="60" as="geometry"/>
                </mxCell>
                <mxCell id="90" style="edgeStyle=orthogonalEdgeStyle;html=1;exitX=1;exitY=0.5;exitDx=0;exitDy=0;entryX=0;entryY=0.5;entryDx=0;entryDy=0;dashed=1;" edge="1" parent="1" source="86" target="74">
                    <mxGeometry relative="1" as="geometry">
                        <Array as="points">
                            <mxPoint x="790" y="410"/>
                            <mxPoint x="790" y="165"/>
                        </Array>
                    </mxGeometry>
                </mxCell>
                <mxCell id="101" style="edgeStyle=orthogonalEdgeStyle;html=1;exitX=0;exitY=1;exitDx=0;exitDy=0;entryX=0.07;entryY=0.4;entryDx=0;entryDy=0;entryPerimeter=0;dashed=1;startArrow=classic;startFill=1;" edge="1" parent="1" source="86" target="99">
                    <mxGeometry relative="1" as="geometry">
                        <Array as="points">
                            <mxPoint x="565" y="806"/>
                        </Array>
                    </mxGeometry>
                </mxCell>
                <mxCell id="103" value="Using code_writter.txt, &lt;br&gt;debugging_prompt.txt&lt;br&gt;to write and debug the code" style="edgeLabel;html=1;align=center;verticalAlign=middle;resizable=0;points=[];" vertex="1" connectable="0" parent="101">
                    <mxGeometry x="0.2525" y="-1" relative="1" as="geometry">
                        <mxPoint x="1" y="-21" as="offset"/>
                    </mxGeometry>
                </mxCell>
                <mxCell id="86" value="src/services/code_&lt;br&gt;interpreter.py" style="rounded=1;whiteSpace=wrap;html=1;" vertex="1" parent="1">
                    <mxGeometry x="565" y="380" width="120" height="60" as="geometry"/>
                </mxCell>
                <mxCell id="95" value="" style="sketch=0;aspect=fixed;html=1;points=[];align=center;image;fontSize=12;image=img/lib/mscae/Docker.svg;" vertex="1" parent="1">
                    <mxGeometry x="330" y="480" width="73.17" height="60" as="geometry"/>
                </mxCell>
                <mxCell id="96" value="" style="sketch=0;aspect=fixed;html=1;points=[];align=center;image;fontSize=12;image=img/lib/mscae/Docker.svg;" vertex="1" parent="1">
                    <mxGeometry x="800" y="280" width="73.17" height="60" as="geometry"/>
                </mxCell>
                <mxCell id="99" value="GEMINI-FLASH-2.0" style="ellipse;shape=cloud;whiteSpace=wrap;html=1;" vertex="1" parent="1">
                    <mxGeometry x="620" y="770" width="180" height="90" as="geometry"/>
                </mxCell>
                <mxCell id="104" value="&lt;ol&gt;&lt;li&gt;if csv file is present then it will read using&amp;nbsp;&lt;br&gt;pandas and provide the schema to code_writter.txt and similar for debugging_prompt.txt&lt;/li&gt;&lt;/ol&gt;" style="rounded=1;whiteSpace=wrap;html=1;align=left;" vertex="1" parent="1">
                    <mxGeometry x="-140" y="440" width="240" height="180" as="geometry"/>
                </mxCell>
                <mxCell id="105" value="&lt;b&gt;NOTES&lt;/b&gt;" style="text;html=1;strokeColor=none;fillColor=none;align=center;verticalAlign=middle;whiteSpace=wrap;rounded=0;" vertex="1" parent="1">
                    <mxGeometry x="-50" y="450" width="60" height="30" as="geometry"/>
                </mxCell>
                <mxCell id="109" value="&lt;b&gt;DOCKER-COMPOSE&lt;/b&gt;" style="rounded=1;whiteSpace=wrap;html=1;" vertex="1" parent="1">
                    <mxGeometry x="635" y="20" width="150" height="60" as="geometry"/>
                </mxCell>
            </root>
        </mxGraphModel>
    </diagram>
</mxfile>